<svg width="88" height="135" viewBox="0 0 88 135" fill="none" xmlns="http://www.w3.org/2000/svg">
<path d="M13.168 105.874C13.168 106.358 13.0666 106.814 12.8638 107.242C12.661 107.659 12.3286 108.025 11.8667 108.341C11.416 108.645 10.8245 108.887 10.0922 109.068C9.37113 109.248 8.48107 109.338 7.422 109.338C6.82487 109.338 6.239 109.293 5.6644 109.203C5.10107 109.113 4.56027 108.983 4.042 108.814C3.535 108.645 3.0618 108.442 2.6224 108.206C2.19427 107.958 1.82247 107.687 1.507 107.394L2.352 106.381C2.9942 106.933 3.74343 107.355 4.5997 107.648C5.45597 107.93 6.39673 108.07 7.422 108.07C8.55993 108.07 9.3655 107.913 9.8387 107.597C10.3119 107.282 10.5485 106.848 10.5485 106.296C10.5485 105.868 10.3626 105.507 9.9908 105.214C9.619 104.921 8.98807 104.634 8.098 104.353L4.887 103.338C3.82793 103 3.028 102.572 2.4872 102.054C1.9464 101.525 1.676 100.854 1.676 100.043C1.676 99.6261 1.77177 99.2262 1.9633 98.8431C2.1661 98.4488 2.47593 98.1051 2.8928 97.8122C3.30967 97.508 3.8392 97.2714 4.4814 97.1024C5.13487 96.9221 5.9179 96.832 6.8305 96.832C7.38257 96.832 7.929 96.8771 8.4698 96.9672C9.02187 97.0573 9.54577 97.1869 10.0415 97.3559C10.5485 97.5249 11.0161 97.7333 11.4442 97.9812C11.8836 98.2178 12.261 98.4826 12.5765 98.7755L11.7315 99.7895C11.0893 99.2374 10.3682 98.8206 9.5683 98.5389C8.76837 98.246 7.85577 98.0995 6.8305 98.0995C5.9855 98.0995 5.34893 98.246 4.9208 98.5389C4.50393 98.8318 4.2955 99.1924 4.2955 99.6205C4.2955 99.8571 4.33493 100.066 4.4138 100.246C4.49267 100.415 4.62223 100.578 4.8025 100.736C4.99403 100.882 5.2419 101.023 5.5461 101.158C5.8503 101.282 6.22773 101.418 6.6784 101.564L9.8725 102.578C10.8978 102.905 11.7033 103.333 12.2892 103.862C12.8751 104.392 13.168 105.062 13.168 105.874ZM17.9845 104.86H23.2235L20.6885 98.6065H20.5195L17.9845 104.86ZM22.5475 97.17L27.364 109H24.9304L23.815 106.127H17.393L16.2776 109H13.844L18.6605 97.17H22.5475ZM38.4388 107.732V109H28.7213V97.17H31.1718V107.732H38.4388ZM43.0869 104.86H48.3259L45.7909 98.6065H45.6219L43.0869 104.86ZM47.6499 97.17L52.4664 109H50.0328L48.9174 106.127H42.4954L41.38 109H38.9464L43.7629 97.17H47.6499ZM8.943 129.07C9.70913 129.07 10.4415 128.941 11.14 128.682C11.8498 128.411 12.5258 127.978 13.168 127.381L14.013 128.394C13.3708 128.992 12.5934 129.465 11.6808 129.814C10.7682 130.163 9.79927 130.338 8.774 130.338C7.71493 130.338 6.75727 130.203 5.901 129.932C5.056 129.662 4.3293 129.262 3.7209 128.732C3.12377 128.203 2.66183 127.549 2.3351 126.772C2.00837 125.995 1.845 125.099 1.845 124.085C1.845 123.071 2.00273 122.175 2.3182 121.398C2.64493 120.621 3.10123 119.967 3.6871 119.438C4.28423 118.908 4.99967 118.508 5.8334 118.238C6.66713 117.967 7.591 117.832 8.605 117.832C9.63027 117.832 10.5992 118.007 11.5118 118.356C12.4244 118.705 13.2018 119.178 13.844 119.775L12.999 120.789C12.3568 120.192 11.6808 119.764 10.971 119.505C10.2725 119.235 9.54013 119.099 8.774 119.099C8.1656 119.099 7.59663 119.201 7.0671 119.404C6.53757 119.595 6.08127 119.894 5.6982 120.299C5.31513 120.705 5.01093 121.223 4.7856 121.854C4.57153 122.474 4.4645 123.217 4.4645 124.085C4.4645 124.953 4.57153 125.702 4.7856 126.333C5.01093 126.952 5.32077 127.465 5.7151 127.871C6.1207 128.276 6.5939 128.58 7.1347 128.783C7.68677 128.975 8.28953 129.07 8.943 129.07ZM17.9852 130H15.5347V118.17H17.9852V130ZM32.5218 118.17V130H29.3108L22.9733 120.367H22.8043V130H20.3538V118.17H23.5648L29.9023 127.803H30.0713V118.17H32.5218ZM37.3442 119.438V123.324H43.5127V124.592H37.3442V128.732H45.2027V130H34.8937V118.17H45.2027V119.438H37.3442Z" fill="white"/>
<path d="M55.18 61.2V87L71.52 81V61.2H55.18Z" fill="white"/>
<path d="M55.18 87H1V1H87V87H71.52V81M55.18 87V61.2H71.52V81M55.18 87L71.52 81" stroke="white" stroke-width="2"/>
</svg>
