<svg width="45" height="66" viewBox="0 0 45 66" fill="none" xmlns="http://www.w3.org/2000/svg">
<path d="M4.80273 59.7148C5.31521 59.7149 5.79968 59.803 6.25586 59.9785C6.71201 60.154 7.10084 60.3914 7.42188 60.6914L6.99902 61.2012C6.67799 60.9012 6.34017 60.6859 5.98535 60.5557C5.63608 60.4198 5.26978 60.3516 4.88672 60.3516C4.58253 60.3516 4.29796 60.403 4.0332 60.5049C3.76846 60.6011 3.54015 60.7513 3.34863 60.9551C3.15717 61.1589 3.00522 61.4194 2.89258 61.7363C2.78555 62.0477 2.73243 62.4215 2.73242 62.8574C2.73242 63.2934 2.78554 63.6702 2.89258 63.9873C3.00523 64.2986 3.16032 64.556 3.35742 64.7598C3.56023 64.9636 3.79698 65.1168 4.06738 65.2188C4.34335 65.3149 4.64504 65.3633 4.97168 65.3633C5.35443 65.3632 5.72033 65.298 6.06934 65.168C6.42425 65.0321 6.76288 64.8138 7.08398 64.5137L7.50684 65.0234C7.18573 65.3235 6.79616 65.5608 6.33984 65.7363C5.88358 65.9118 5.3993 66 4.88672 66C4.35719 66 3.87832 65.9318 3.4502 65.7959C3.02783 65.66 2.66449 65.4594 2.36035 65.1934C2.06178 64.9272 1.83036 64.5987 1.66699 64.208C1.50364 63.8173 1.42188 63.367 1.42188 62.8574C1.42189 62.3479 1.50145 61.8975 1.65918 61.5068C1.82253 61.1163 2.04995 60.7875 2.34277 60.5215C2.64125 60.2554 2.99931 60.0548 3.41602 59.9189C3.83289 59.7831 4.29572 59.7148 4.80273 59.7148ZM9.49219 65.8301H8.26758V59.8848H9.49219V65.8301ZM15.4512 64.7256H15.5361V59.8848H16.7607V65.8301H15.1553L11.9863 60.9893H11.9023V65.8301H10.6768V59.8848H12.2822L15.4512 64.7256ZM23.1016 60.5215H19.1719V62.4756H22.2568V63.1123H19.1719V65.1934H23.1016V65.8301H17.9473V59.8848H23.1016V60.5215ZM3.91504 49.1611C4.19098 49.1611 4.46406 49.1842 4.73438 49.2295C5.01042 49.2748 5.27263 49.3399 5.52051 49.4248C5.774 49.5097 6.00762 49.6147 6.22168 49.7393C6.44132 49.8581 6.63038 49.9905 6.78809 50.1377L6.36523 50.6475C6.04428 50.3702 5.68391 50.161 5.28418 50.0195C4.88421 49.8723 4.42767 49.7979 3.91504 49.7979C3.49253 49.7979 3.17403 49.8723 2.95996 50.0195C2.75178 50.1667 2.64751 50.3475 2.64746 50.5625C2.64746 50.6814 2.6676 50.7864 2.70703 50.877C2.74647 50.9618 2.8113 51.0438 2.90137 51.123C2.99709 51.1966 3.1205 51.268 3.27246 51.3359C3.42453 51.3982 3.6136 51.4655 3.83887 51.5391L5.43652 52.0488C5.94898 52.213 6.35167 52.4283 6.64453 52.6943C6.93745 52.9604 7.08397 53.2974 7.08398 53.7051C7.08398 53.9486 7.03304 54.1784 6.93164 54.3936C6.83025 54.6028 6.66431 54.7869 6.43359 54.9453C6.20825 55.0982 5.91208 55.22 5.5459 55.3105C5.1854 55.4011 4.74039 55.4463 4.21094 55.4463C3.91237 55.4463 3.61933 55.4232 3.33203 55.3779C3.05036 55.3326 2.77965 55.2676 2.52051 55.1826C2.26711 55.0977 2.03017 54.9958 1.81055 54.877C1.59663 54.7524 1.41058 54.6169 1.25293 54.4697L1.67578 53.96C1.99688 54.2374 2.37168 54.4495 2.7998 54.5967C3.22791 54.7382 3.69834 54.8096 4.21094 54.8096C4.77978 54.8096 5.18236 54.7298 5.41895 54.5713C5.65542 54.4128 5.77428 54.1952 5.77441 53.918C5.77441 53.7028 5.68102 53.5212 5.49512 53.374C5.30921 53.2268 4.99387 53.082 4.54883 52.9404L2.94336 52.4316C2.41392 52.2618 2.01357 52.0465 1.74316 51.7861C1.47285 51.5201 1.33798 51.1829 1.33789 50.7754C1.33789 50.5659 1.38568 50.3644 1.48145 50.1719C1.58284 49.9738 1.73793 49.8015 1.94629 49.6543C2.15471 49.5014 2.41917 49.3818 2.74023 49.2969C3.06698 49.2063 3.45873 49.1611 3.91504 49.1611ZM14.1816 55.2764H12.9648L12.4072 53.833H9.19629L8.63867 55.2764H7.42188L9.83008 49.3311H11.7734L14.1816 55.2764ZM16.0859 54.6396H19.7197V55.2764H14.8604V49.3311H16.0859V54.6396ZM26.7334 55.2764H25.5166L24.959 53.833H21.748L21.1904 55.2764H19.9736L22.3818 49.3311H24.3252L26.7334 55.2764ZM9.49219 53.1953H12.1113L10.8438 50.0527H10.7598L9.49219 53.1953ZM22.0439 53.1953H24.6631L23.3955 50.0527H23.3115L22.0439 53.1953ZM45.001 45.2207H35.2607V42.6396L28.4375 45.1582L28.2695 45.2207H0V0H45.001V45.2207ZM2 43.2207H27.0908V30.2539H37.2607V43.2207H43.001V2H2V43.2207Z" fill="#181818"/>
</svg>
